<?xml version="1.0" standalone="no"?>
<!DOCTYPE svg PUBLIC "-//W3C//DTD SVG 1.1//EN" "http://www.w3.org/Graphics/SVG/1.1/DTD/svg11.dtd" >
<svg>
<metadata>
Created by FontForge 20090622 at Thu Jan  9 09:11:30 2020
 By deploy user
free from: Publishers' Paradise BBS (205)882-6886 HST D/S
</metadata>
<defs>
<font id="Eras-Normal" horiz-adv-x="21" >
  <font-face 
    font-family="Eras"
    font-weight="400"
    font-stretch="normal"
    units-per-em="1000"
    panose-1="2 0 5 3 0 0 0 0 0 0"
    ascent="800"
    descent="-200"
    x-height="454"
    cap-height="613"
    bbox="-2 -279 1014 814"
    underline-thickness="40"
    underline-position="-40"
    unicode-range="U+0020-U+FFFD"
  />
<missing-glyph horiz-adv-x="0" 
 />
    <glyph glyph-name=".notdef" unicode="&#xfffd;" horiz-adv-x="0" 
 />
    <glyph glyph-name=".null" horiz-adv-x="0" 
 />
    <glyph glyph-name="nonmarkingreturn" horiz-adv-x="333" 
 />
    <glyph glyph-name="space" unicode=" " 
 />
    <glyph glyph-name="exclam" unicode="!" horiz-adv-x="101" 
d="M11 605h57v-489h-57v489zM4 66h71v-64h-71v64z" />
    <glyph glyph-name="quotedbl" unicode="&#x22;" horiz-adv-x="215" 
d="M127 605h59v-142h-59v142zM5 605h58v-142h-58v142z" />
    <glyph glyph-name="numbersign" unicode="#" horiz-adv-x="502" 
d="M150 432l43 173h59l-45 -173h123l43 173h57l-42 -173h87v-43h-95l-42 -173h85v-43h-93l-42 -171h-58l43 171h-130l-43 -171h-57l43 171h-79v43h93l43 173h-86v43h93zM280 216l43 173h-130l-36 -173h123z" />
    <glyph glyph-name="dollar" unicode="$" horiz-adv-x="358" 
d="M139 613v80h59v-80q27 0 93 -22l7 -50q-68 22 -121 22q-51 0 -76.5 -24t-25.5 -59q0 -53 43 -91q3 -3 28 -23t38.5 -32l39 -35t40.5 -41t32 -40.5t25 -44t8 -41.5q0 -2 -1 -7.5t-1 -8.5q-10 -45 -46 -73.5t-83 -40.5v-79h-59v79q-7 1 -24.5 2.5t-22 2.5t-17 2.5t-17 3
t-14 4t-17 6l-16.5 7.5l-7 58q98 -45 153 -45q88 0 106 87v11q0 15 -9 33t-25.5 36.5t-30 32t-34 31.5t-25.5 22q-11 11 -38.5 35t-42.5 39t-30 42t-17 58q0 2 -1 5t-1 5q0 48 39 85.5t91 47.5z" />
    <glyph glyph-name="percent" unicode="%" horiz-adv-x="711" 
d="M225 432q0 83 -24 117.5t-56 34.5q-25 0 -43.5 -16t-27 -41t-12 -48.5t-3.5 -46.5q0 -25 2.5 -50t9.5 -57t24.5 -51.5t42.5 -19.5q87 0 87 178zM9 432q5 89 38 138.5t91 49.5q63 0 100 -46.5t37 -141.5q0 -98 -32.5 -157t-104.5 -59q-38 0 -65 21t-40 55.5t-18.5 68.5
t-5.5 71zM634 195q0 83 -23 117t-56 34t-53.5 -29t-26 -59.5t-5.5 -62.5q0 -25 2.5 -50t9.5 -57t24 -52t42 -20q86 0 86 179zM418 195q5 88 38.5 137.5t91.5 49.5q62 0 100 -47t38 -140q0 -98 -33.5 -156.5t-104.5 -58.5q-38 0 -65 21t-40.5 55t-19 68t-5.5 71zM491 613h50
l-346 -611h-50z" />
    <glyph glyph-name="ampersand" unicode="&#x26;" horiz-adv-x="597" 
d="M389 95l-200 201q-53 -19 -88 -62t-35 -86q0 -48 43 -82q50 -41 116 -41q49 0 96.5 21t67.5 49zM448 254h50q0 -37 -1.5 -55t-9 -45.5t-24.5 -58.5l107 -93h-72l-71 57q-28 -32 -84.5 -51t-117.5 -19q-57 0 -106 18.5t-74 51.5q-36 51 -36 96q0 97 143 177
q-64 76 -64 152q6 63 54 94t119 31q44 0 93 -11l14 -50q-54 18 -107 18q-54 0 -85 -26t-31 -67q0 -59 66 -134l209 -209q28 58 28 124z" />
    <glyph glyph-name="quoteright" unicode="&#x2019;" horiz-adv-x="1040" 
d="M964 202q0 83 -23 117.5t-55 34.5q-34 0 -55 -29t-27 -60t-6 -63q0 -25 2.5 -50t9.5 -57t24.5 -52t42.5 -20q87 0 87 179zM748 202q5 89 38 138t91 49q63 0 100 -46.5t37 -140.5q0 -215 -137 -215q-38 0 -65 20.5t-40 55.5t-18.5 68.5t-5.5 70.5zM223 446q0 84 -23.5 118
t-56.5 34q-25 0 -43.5 -16t-27 -41t-12 -48.5t-3.5 -46.5q0 -25 2.5 -50t9.5 -57t24.5 -51.5t42.5 -19.5q87 0 87 178zM7 446q5 89 38 138.5t91 49.5q63 0 100 -46.5t37 -141.5q0 -214 -137 -214q-38 0 -65 20.5t-40 55t-18.5 68.5t-5.5 70zM639 202q0 83 -23 117.5
t-55 34.5q-25 0 -43.5 -16t-27 -41t-12 -48.5t-3.5 -46.5q0 -25 2.5 -50t9.5 -57t24.5 -52t42.5 -20q85 0 85 179zM423 202q7 89 40 138t91 49q62 0 99.5 -47t37.5 -140q0 -98 -33 -156.5t-104 -58.5q-38 0 -65.5 21t-41 55t-19 68t-5.5 71zM143 2l361 625h50l-361 -625h-50
z" />
    <glyph glyph-name="parenleft" unicode="(" horiz-adv-x="149" 
d="M75 605h43q-55 -204 -55 -398q0 -183 55 -405h-43q-66 214 -66 402q0 182 66 401z" />
    <glyph glyph-name="parenright" unicode=")" horiz-adv-x="140" 
d="M4 598h42q65 -198 65 -394q0 -187 -65 -402h-42q50 167 50 389q0 214 -50 407z" />
    <glyph glyph-name="asterisk" unicode="*" horiz-adv-x="340" 
d="M136 605h52l-8 -128l122 50l14 -43l-128 -38l92 -100l-35 -28l-79 107l-87 -107l-29 28l86 100l-129 38l22 43l121 -57z" />
    <glyph glyph-name="plus" unicode="+" horiz-adv-x="492" 
d="M211 254v200h50v-200h202v-52h-202v-200h-50v200h-202v52h202z" />
    <glyph glyph-name="comma" unicode="," horiz-adv-x="158" 
d="M48 66h86l-86 -157h-43z" />
    <glyph glyph-name="hyphen" unicode="-" horiz-adv-x="263" 
d="M7 254h223v-45h-223v45z" />
    <glyph glyph-name="period" unicode="." horiz-adv-x="101" 
d="M5 66h72v-64h-72v64z" />
    <glyph glyph-name="slash" unicode="/" horiz-adv-x="388" 
d="M298 613h65l-302 -611h-57z" />
    <glyph glyph-name="zero" unicode="0" horiz-adv-x="465" 
d="M366 325q0 72 -14.5 128.5t-49.5 93.5t-86 37q-41 0 -72.5 -29t-47.5 -72.5t-24 -86t-8 -78.5q0 -143 38.5 -215.5t106.5 -72.5q157 0 157 256v39zM7 318q0 150 58.5 229.5t150.5 79.5q63 0 108.5 -33.5t67.5 -86.5t31 -103t9 -100t-8 -98.5t-28.5 -101t-64.5 -85
t-106 -32.5h-9q-113 0 -158 81t-51 250z" />
    <glyph glyph-name="one" unicode="1" horiz-adv-x="149" 
d="M61 563l-52 -36v57l59 36h57v-618h-64v561z" />
    <glyph glyph-name="two" unicode="2" horiz-adv-x="426" 
d="M2 52l194 216q127 133 127 214q0 76 -112 95q-5 0 -19 1t-19 1q-51 0 -164 -24l7 43q72 23 155 23q93 0 156.5 -33.5t63.5 -98.5q0 -79 -95 -185l-223 -259h309v-43h-380v50z" />
    <glyph glyph-name="three" unicode="3" horiz-adv-x="435" 
d="M104 339q6 0 19 -0.5t20 -0.5q169 0 177 116v7q0 61 -45 87.5t-114 26.5q-43 0 -129 -12l7 42q68 15 124 15q95 0 158 -39t63 -111v-24q-5 -54 -41.5 -85t-87.5 -43q25 -5 41 -10t39 -16.5t36.5 -27t23.5 -43t10 -62.5q0 -77 -64.5 -123.5t-167.5 -46.5q-76 0 -162 27
l-7 50q70 -32 151 -32q74 0 127 30t59 88v18q0 62 -51.5 91.5t-130.5 29.5q-38 0 -55 -2v50z" />
    <glyph glyph-name="four" unicode="4" horiz-adv-x="445" 
d="M254 2v214h-252v59l230 330h79v-344h102v-45h-102v-214h-57zM254 563l-209 -302h209v302z" />
    <glyph glyph-name="five" unicode="5" horiz-adv-x="417" 
d="M38 605h330v-42h-273l-15 -217q12 0 37 1t38 1q234 0 234 -166v-9q-1 -53 -25 -91.5t-63.5 -59t-82 -29.5t-88.5 -9q-80 0 -121 18l-7 50q82 -23 137 -23q83 0 133 39t53 105v18q0 58 -47.5 87t-131.5 29q-61 0 -123 -11z" />
    <glyph glyph-name="six" unicode="6" horiz-adv-x="454" 
d="M205 605h65l-48 -72q-49 -72 -72 -111.5t-51.5 -105.5t-30.5 -114q0 -3 -1 -11t-1 -11q0 -63 34.5 -106.5t104.5 -43.5q75 0 112.5 40.5t37.5 95.5q0 82 -36 112.5t-96 30.5q-16 0 -46 -2.5t-38 -2.5l22 42q36 8 64 8q35 0 67.5 -9t62.5 -28.5t48 -56t18 -85.5v-9
q-3 -51 -23.5 -88t-54 -55.5t-69 -27t-76.5 -8.5q-90 0 -139.5 56t-49.5 146q0 69 30 150q5 13 11 26.5t14.5 29l15 27.5t19 31l19 29t22 31.5l21 29.5l23 32t21.5 30z" />
    <glyph glyph-name="seven" unicode="7" horiz-adv-x="386" 
d="M305 570h-301v43h359v-50l-231 -561h-71z" />
    <glyph glyph-name="eight" unicode="8" horiz-adv-x="465" 
d="M352 463v10q0 38 -33.5 71t-95.5 33q-137 0 -137 -131q0 -53 31.5 -87t98.5 -34q59 0 98.5 37t39.5 81q0 2 -1 9.5t-1 10.5zM373 166q0 116 -157 116q-83 0 -117.5 -33t-34.5 -97q0 -52 47 -87t105 -35q78 0 117.5 42.5t39.5 93.5zM129 311q-108 46 -108 152
q0 78 59.5 117.5t135.5 39.5q72 0 132.5 -38t60.5 -114v-22q-5 -57 -32.5 -86t-74.5 -49q72 -11 101 -50.5t29 -108.5q0 -26 -11 -53t-34.5 -53t-68 -42.5t-102.5 -16.5q-57 0 -98.5 15t-63.5 41t-33 52.5t-14 56.5q0 126 122 159z" />
    <glyph glyph-name="nine" unicode="9" horiz-adv-x="443" 
d="M154 2q42 57 65 91t60.5 97t56.5 120.5t19 107.5q0 74 -33.5 117.5t-101.5 48.5h-15q-49 0 -91.5 -38t-45.5 -107q0 -1 -1 -5t-1 -5q0 -56 40 -88t105 -32q37 0 94 16l-21 -50q-46 -11 -84 -11q-49 0 -89.5 13t-73 51t-33.5 97q0 2 -1 5.5t-1 5.5q0 86 65 138.5t146 52.5
q189 0 201 -195v-11q0 -72 -59 -203t-121 -216h-80z" />
    <glyph glyph-name="colon" unicode=":" horiz-adv-x="110" 
d="M7 446h72v-64h-72v64zM7 66h72v-64h-72v64z" />
    <glyph glyph-name="semicolon" unicode=";" horiz-adv-x="158" 
d="M63 454h64v-72h-64v72zM48 59h79l-79 -150h-43z" />
    <glyph glyph-name="less" unicode="&#x3c;" horiz-adv-x="474" 
d="M2 188v73l439 193v-65l-396 -166l396 -171v-65z" />
    <glyph glyph-name="equal" unicode="=" horiz-adv-x="483" 
d="M9 332h446v-57h-446v57zM2 159h453v-57h-453v57z" />
    <glyph glyph-name="greater" unicode="&#x3e;" horiz-adv-x="483" 
d="M9 484l446 -209v-80l-446 -200v64l395 173l-395 186v66z" />
    <glyph glyph-name="question" unicode="?" horiz-adv-x="388" 
d="M145 109v123q0 26 39.5 76l79.5 103t40 87q0 37 -25.5 59t-54.5 28t-65 6q-65 0 -150 -21l7 50q82 14 138 14q57 0 101 -11t75 -41t31 -77q-2 -40 -19 -75.5t-40 -62l-46 -51t-38.5 -52t-15.5 -55.5v-100h-57zM138 66h71v-64h-71v64z" />
    <glyph glyph-name="at" unicode="@" horiz-adv-x="665" 
d="M421 361q-21 -16 -78 -31.5t-96.5 -35.5t-39.5 -55q0 -53 77 -53q36 0 95 16l-15 -43q-31 -13 -69 -13q-55 0 -97.5 23t-42.5 70q0 78 102 107q47 7 106.5 32t59.5 56q0 2 -1 6.5t-1 5.5q-11 36 -89 36q-65 0 -134 -28l9 44q44 23 116 23q58 0 100.5 -20.5t42.5 -62.5
v-236q54 0 87 45.5t33 109.5q0 88 -62 158.5t-181 75.5q-75 0 -137 -28.5t-102.5 -91.5t-40.5 -153q0 -128 64.5 -205t186.5 -83q156 0 231 129h57q-35 -84 -114.5 -128t-158.5 -44q-163 6 -240.5 90t-83.5 241q0 128 89.5 222t226.5 94q56 0 105.5 -11.5t96 -37.5t77 -76
t38.5 -120q0 -6 0.5 -19t0.5 -18q0 -43 -14 -77.5t-36 -55.5t-51.5 -35t-58 -19.5t-58.5 -5.5v202z" />
    <glyph glyph-name="A" unicode="A" horiz-adv-x="645" 
d="M7 2l288 611h78l245 -611h-72l-108 287h-238l-121 -287h-72zM423 332l-93 238l-116 -238h209z" />
    <glyph glyph-name="B" unicode="B" horiz-adv-x="454" 
d="M7 613h209q88 0 138 -36.5t50 -108.5v-14q-13 -106 -116 -136q64 -4 100.5 -50t36.5 -102v-14q-7 -152 -196 -152q-6 0 -17.5 1t-16.5 1h-188v611zM71 570v-231h102q70 0 112.5 23.5t52.5 91.5q0 16 -1 26.5t-7 29.5t-18 30.5t-36.5 20.5t-59.5 9h-145zM359 166v9
q0 37 -19 63.5t-47 37.5t-48.5 15.5t-35.5 4.5h-138v-251h138q22 0 44.5 4t48 14.5t41.5 34t16 57.5v11z" />
    <glyph glyph-name="C" unicode="C" horiz-adv-x="531" 
d="M4 304q4 160 89.5 237t238.5 77q72 0 147 -13l14 -64q-86 25 -168 25q-117 0 -187 -63.5t-70 -198.5q0 -2 -1 -6.5t-1 -6.5q0 -135 74 -199.5t189 -64.5q85 0 171 32l-7 -57q-82 -18 -163 -18q-157 0 -241.5 84.5t-84.5 235.5z" />
    <glyph glyph-name="D" unicode="D" horiz-adv-x="579" 
d="M7 613h266q131 0 206 -72.5t75 -219.5v-17q0 -22 -2 -42.5t-10 -51.5t-21.5 -57t-39 -54.5t-60 -48t-87.5 -33.5t-118 -15h-209v611zM64 570v-518h145q83 0 140 21.5t86.5 61.5t41.5 85.5t12 104.5q0 119 -52.5 182t-184.5 63h-188z" />
    <glyph glyph-name="E" unicode="E" horiz-adv-x="406" 
d="M2 613h373v-43h-309v-238h280v-43h-280v-244h302v-43h-366v611z" />
    <glyph glyph-name="F" unicode="F" horiz-adv-x="397" 
d="M9 613h359v-43h-295v-238h266v-43h-266v-287h-64v611z" />
    <glyph glyph-name="G" unicode="G" horiz-adv-x="599" 
d="M509 296h-145v43h209v-323q-123 -29 -234 -29q-321 0 -334 295q0 3 -0.5 9.5t-0.5 8.5q0 150 82 236.5t262 86.5q93 0 190 -18l7 -57q-109 31 -202 31q-144 0 -212 -77.5t-68 -197.5q4 -134 76.5 -204.5t194.5 -70.5q70 0 175 30v237z" />
    <glyph glyph-name="H" unicode="H" horiz-adv-x="540" 
d="M448 339v274h65v-611h-65v294h-382v-294h-64v611h64v-274h382z" />
    <glyph glyph-name="I" unicode="I" horiz-adv-x="101" 
d="M5 613h65v-611h-65v611z" />
    <glyph glyph-name="J" unicode="J" horiz-adv-x="340" 
d="M246 613h67v-468q0 -77 -45 -120t-127 -43q-54 0 -123 20l-7 50q76 -23 123 -23q112 0 112 116v468z" />
    <glyph glyph-name="K" unicode="K" horiz-adv-x="454" 
d="M311 613l-245 -288l280 -323h81l-297 330l252 281h-71zM2 613h64v-611h-64v611z" />
    <glyph glyph-name="L" unicode="L" horiz-adv-x="397" 
d="M11 613h64v-568h295v-43h-359v611z" />
    <glyph glyph-name="M" unicode="M" horiz-adv-x="654" 
d="M2 613h86l223 -547l223 547h93v-611h-57v539l-224 -539h-64l-223 539v-539h-57v611z" />
    <glyph glyph-name="N" unicode="N" horiz-adv-x="570" 
d="M5 613h79l396 -547v547h58v-611h-79l-396 539v-539h-58v611z" />
    <glyph glyph-name="O" unicode="O" horiz-adv-x="674" 
d="M584 304q0 128 -69 197t-190 69q-129 0 -197.5 -80.5t-68.5 -200.5q0 -29 6.5 -60t24.5 -66t46 -62t75 -45t107 -18q75 0 129 23.5t82.5 63.5t41.5 84.5t13 94.5zM2 325q0 124 89.5 209.5t240.5 85.5q149 0 233.5 -82.5t84.5 -219.5q0 -36 -5 -71t-24.5 -83.5
t-51.5 -84.5t-93.5 -63t-143.5 -29h-16q-153 0 -234.5 88.5t-81.5 229.5q0 3 1 10.5t1 9.5z" />
    <glyph glyph-name="P" unicode="P" horiz-adv-x="426" 
d="M7 613h209q31 0 60 -7t57.5 -22.5t45.5 -46t17 -73.5v-10q-1 -40 -17 -70t-38.5 -47t-53.5 -28t-58 -14.5t-56 -3.5q-1 0 -66 5l-14 43q4 0 24.5 -3.5t32.5 -3.5q29 0 57 5.5t55.5 17.5t45.5 33.5t22 50.5q0 4 1 11.5t1 10.5q0 50 -38.5 76t-91.5 26h-131v-561h-64v611z
" />
    <glyph glyph-name="Q" unicode="Q" horiz-adv-x="685" 
d="M588 318q0 112 -62.5 185.5t-189.5 73.5q-131 0 -193.5 -60t-72.5 -199q0 -2 -1 -8.5t-1 -7.5q0 -32 8.5 -65.5t27.5 -67.5t47 -61t70 -44.5t93 -18.5q2 0 7.5 -1t7.5 -1q114 0 186.5 71t72.5 188v16zM5 318q17 309 338 309q57 0 109 -16.5t97 -51t72.5 -96.5t30.5 -145
q0 -203 -143 -273q2 0 7.5 -1t6.5 -1q18 0 41 6t52.5 16.5t44.5 14.5l-16 -64l-302 -21h-16q-88 0 -153.5 30t-100.5 79.5t-51.5 103t-16.5 110.5z" />
    <glyph glyph-name="R" unicode="R" horiz-adv-x="426" 
d="M2 613h223q67 0 115.5 -41.5t48.5 -108.5v-15q0 -72 -55 -113.5t-118 -41.5q-5 0 -14.5 1.5t-12.5 1.5l209 -294h-80l-216 323q6 0 20 -1t19 -1q90 0 135 29t49 94v13q0 60 -39 85.5t-90 25.5h-130v-568h-64v611z" />
    <glyph glyph-name="S" unicode="S" horiz-adv-x="377" 
d="M286 138q-4 34 -34 68.5t-69.5 64.5l-79 60.5t-68 66.5t-30.5 72q0 2 -0.5 9t-0.5 10q0 37 16.5 63.5t44.5 39.5t58 18.5t65 5.5q70 0 119 -11l7 -50q-66 18 -128 18q-18 0 -45 -3q-35 -12 -54 -35t-19 -51q0 -18 9 -38q16 -34 54.5 -68.5t88.5 -71.5t73 -60
q55 -58 55 -123q0 -53 -42 -91t-115 -45q-120 0 -178 29l-8 57q78 -41 159 -41q54 0 88 25.5t34 80.5z" />
    <glyph glyph-name="T" unicode="T" horiz-adv-x="483" 
d="M196 570h-185v43h444v-43h-192v-568h-67v568z" />
    <glyph glyph-name="U" unicode="U" horiz-adv-x="560" 
d="M463 613h64v-411q0 -112 -65 -163.5t-201 -51.5q-107 0 -180.5 50t-73.5 145q0 2 1 6.5t1 6.5v418h64v-411q0 -41 13 -72.5t32.5 -50t45.5 -30t49.5 -15.5t47.5 -4q38 0 71.5 8t64 26.5t48.5 53.5t18 84v411z" />
    <glyph glyph-name="V" unicode="V" horiz-adv-x="636" 
d="M545 613h64l-288 -611h-71l-245 611h65l216 -568z" />
    <glyph glyph-name="W" unicode="W" horiz-adv-x="904" 
d="M407 389l-86 224h65l50 -150l73 150h64l-109 -224l124 -330l223 554h64l-252 -611h-71l-116 316l-143 -316h-73l-215 611h65l187 -554z" />
    <glyph glyph-name="X" unicode="X" horiz-adv-x="570" 
d="M234 318l-207 295h71l181 -245l178 245h73l-223 -295l231 -316h-81l-186 273l-194 -273h-72z" />
    <glyph glyph-name="Y" unicode="Y" horiz-adv-x="522" 
d="M209 2v273l-200 338h71l165 -288l173 288h73l-216 -338v-273h-66z" />
    <glyph glyph-name="Z" unicode="Z" horiz-adv-x="474" 
d="M375 570h-352v43h418v-58l-368 -510h359v-43h-423v57z" />
    <glyph glyph-name="bracketleft" unicode="[" horiz-adv-x="149" 
d="M4 613h121v-36h-64v-740h64v-35h-121v811z" />
    <glyph glyph-name="backslash" unicode="\" horiz-adv-x="397" 
d="M5 605h65l294 -603h-64z" />
    <glyph glyph-name="bracketright" unicode="]" horiz-adv-x="149" 
d="M68 577h-57v36h114v-811h-114v35h57v740z" />
    <glyph glyph-name="asciicircum" unicode="^" horiz-adv-x="474" 
d="M232 570l-159 -324h-64l186 359h73l180 -359h-66z" />
    <glyph glyph-name="underscore" unicode="_" horiz-adv-x="493" 
d="M4 -279v50h460v-50h-460z" />
    <glyph glyph-name="quoteleft" unicode="&#x2018;" horiz-adv-x="722" 
d="M621 66h72v-64h-72v64zM318 66h73v-64h-73v64zM9 66h71v-64h-71v64z" />
    <glyph glyph-name="a" unicode="a" horiz-adv-x="417" 
d="M332 2v266q-49 -30 -128 -52q-147 -29 -147 -107q0 -2 1 -6.5t1 -7.5q5 -35 37 -51.5t77 -16.5q55 0 102 18l-7 -43q-40 -15 -109 -15q-29 0 -54.5 5.5t-49 18.5t-38 38t-15.5 60q0 57 43.5 89.5t149.5 62.5q13 4 34.5 9t32.5 8t26 9t22.5 13t13.5 18.5t8 27.5v4
q0 34 -36 50t-89 16q-90 0 -155 -27l7 50q69 22 146 22q79 0 131.5 -28t52.5 -87v-344h-57z" />
    <glyph glyph-name="b" unicode="b" horiz-adv-x="474" 
d="M66 404v-195q0 -77 42 -124t117 -47q33 0 58.5 9t49 31t36.5 66.5t13 109.5q0 81 -50 126t-136 45q-58 0 -130 -21zM9 613h57v-174q61 27 145 27q43 0 81.5 -11t73 -35.5t55 -70t20.5 -108.5v-9q0 -119 -59.5 -178t-142.5 -59q-52 0 -100.5 23.5t-72.5 61.5v-78h-57v611z
" />
    <glyph glyph-name="c" unicode="c" horiz-adv-x="377" 
d="M4 232q1 67 20 114.5t52.5 72.5t70.5 36t82 11q54 0 112 -12l7 -58q-59 27 -121 27q-73 0 -119.5 -47t-46.5 -144q0 -94 43.5 -146t124.5 -52q42 0 119 25l-14 -57q-51 -9 -98 -9q-111 0 -171.5 59t-60.5 180z" />
    <glyph glyph-name="d" unicode="d" horiz-adv-x="454" 
d="M368 411q-43 12 -95 12q-37 0 -70.5 -8.5t-66 -27.5t-53.5 -57t-24 -91q0 -2 -1 -9t-1 -10q0 -78 41 -134t106 -56t109.5 41t54.5 131v209zM368 454v159h59v-611h-59v86q-15 -38 -54 -69.5t-110 -31.5q-87 0 -145.5 59.5t-58.5 160.5q0 2 1 7.5t1 8.5q3 69 29 119.5
t66.5 76.5t82.5 37.5t88 11.5q56 0 100 -14z" />
    <glyph glyph-name="e" unicode="e" horiz-adv-x="435" 
d="M354 289v15q0 56 -33.5 88.5t-88.5 32.5q-41 -2 -71 -13t-45 -22.5t-25 -34t-12.5 -33t-5.5 -33.5h281zM9 232q0 119 64.5 178.5t151.5 59.5q84 0 136 -57t52 -133q0 -4 -1 -13t-1 -13h-345q0 -121 49 -172.5t126 -51.5q56 0 141 29l-7 -50q-69 -20 -134 -20
q-105 0 -168.5 61t-63.5 182z" />
    <glyph glyph-name="f" unicode="f" horiz-adv-x="302" 
d="M68 411h-57v43h57v73q0 98 128 98q13 0 27.5 -1t28 -2.5t18.5 -1.5l7 -43q-49 9 -73 9q-77 0 -86 -66v-66h130v-43h-130v-409h-50v409z" />
    <glyph glyph-name="g" unicode="g" horiz-adv-x="483" 
d="M396 404q-56 16 -107 16q-95 0 -159 -53.5t-64 -150.5q0 -1 -1 -4.5t-1 -4.5q0 -85 47 -132.5t112 -47.5q68 0 120.5 52.5t52.5 143.5v181zM396 -20v115q-45 -108 -185 -108q-89 0 -145.5 57.5t-56.5 157.5q4 134 80.5 198t206.5 64q69 0 159 -18v-480q0 -180 -216 -180
q-61 0 -173 23v50q95 -30 168 -30q74 0 118 36t44 115z" />
    <glyph glyph-name="h" unicode="h" horiz-adv-x="445" 
d="M2 613h50v-245q31 50 81 75t106 25q72 0 126.5 -36.5t54.5 -92.5v-337h-59v334q0 36 -40.5 60.5t-93.5 24.5q-60 0 -108.5 -34.5t-59.5 -104.5v-280h-57v611z" />
    <glyph glyph-name="i" unicode="i" horiz-adv-x="101" 
d="M5 613h72v-58h-72v58zM13 454h57v-452h-57v452z" />
    <glyph glyph-name="j" unicode="j" horiz-adv-x="311" 
d="M11 -148q63 -20 103 -20q97 0 104 113v509h57v-538q0 -16 -1.5 -29t-10.5 -33t-24 -33t-45 -22.5t-71 -9.5q-48 0 -112 13v50zM211 613h71v-58h-71v58z" />
    <glyph glyph-name="k" unicode="k" horiz-adv-x="379" 
d="M9 613h50v-611h-50v611zM246 454l-187 -193l223 -259h72l-231 259l195 193h-72z" />
    <glyph glyph-name="l" unicode="l" horiz-adv-x="92" 
d="M61 613v-611h-50v611h50z" />
    <glyph glyph-name="m" unicode="m" horiz-adv-x="674" 
d="M59 454v-72q13 35 53.5 56t89.5 21q48 0 88 -21t56 -63q22 41 67.5 63.5t95.5 22.5q58 0 99.5 -30t41.5 -85v-344h-59v337q0 34 -29.5 53t-70.5 19q-53 0 -95 -32.5t-42 -89.5v-287h-58v330q0 37 -28 57t-68 20q-53 0 -97 -34t-44 -93v-280h-57v452h57z" />
    <glyph glyph-name="n" unicode="n" horiz-adv-x="445" 
d="M59 2h-57v452h57v-93q9 47 63 74.5t121 27.5q71 0 124 -32.5t53 -91.5v-337h-59v323q0 41 -42.5 69.5t-97.5 28.5q-64 0 -111.5 -44.5t-50.5 -132.5v-244z" />
    <glyph glyph-name="o" unicode="o" horiz-adv-x="483" 
d="M232 463q107 -6 165 -77t58 -170q0 -93 -57.5 -161t-158.5 -68h-7q-105 0 -164 69.5t-59 163.5q0 95 59.5 167.5t163.5 75.5zM232 418q-87 -5 -130 -62t-43 -140q6 -75 54.5 -130.5t125.5 -55.5q83 0 127.5 53t44.5 128q0 80 -48 143.5t-125 63.5h-6z" />
    <glyph glyph-name="p" unicode="p" horiz-adv-x="454" 
d="M9 432h-5q0 2 26 8.5t71 12.5t87 6q105 0 151 -34q41 -27 64.5 -84.5t23.5 -122.5q0 -73 -31.5 -133t-91.5 -83q-58 -13 -83 -13q-31 0 -59 9t-45.5 21.5t-30.5 25t-19.5 21.5t-7.5 9v-273h-50v630zM59 389v-180q0 -68 43.5 -127t117.5 -59q11 0 48 7q45 12 76 75.5
t31 133.5q0 55 -21.5 98t-64.5 59q-61 24 -110 24q-48 0 -120 -31z" />
    <glyph glyph-name="q" unicode="q" horiz-adv-x="465" 
d="M432 446v-630h-59v272q-13 -43 -59 -69t-101 -26q-83 0 -144.5 55t-61.5 161q0 68 23.5 118.5t64.5 79t91 42.5t109 14q54 0 137 -17zM373 411q-5 1 -25 3.5t-40.5 4.5t-39.5 2q-145 0 -197 -139q-10 -38 -10 -66q0 -71 42 -125.5t118 -54.5q5 0 16 1t15 1q61 10 91 59
t30 119v195z" />
    <glyph glyph-name="r" unicode="r" horiz-adv-x="263" 
d="M61 454v-79q25 43 62.5 66t74.5 23q20 0 29 -1l7 -52q-16 7 -32 7q-48 0 -94.5 -41.5t-46.5 -108.5v-266h-57v452h57z" />
    <glyph glyph-name="s" unicode="s" horiz-adv-x="311" 
d="M263 446l7 -50q-48 18 -107 18q-38 0 -64 -14t-26 -43q0 -1 1 -5t1 -6q17 -38 46 -64.5t56 -40.5t57.5 -44t49.5 -74v-23q0 -107 -154 -107q-66 0 -119 16l-7 50q62 -27 130 -27q49 0 71 20q22 21 22 44t-19 45.5t-73.5 66t-73.5 60.5q-45 57 -45 98q0 44 43 66.5
t109 22.5q60 0 95 -9z" />
    <glyph glyph-name="t" unicode="t" horiz-adv-x="292" 
d="M125 548v-94h130v-43h-130v-316q6 -65 59 -65q25 0 79 22v-36q-5 -9 -31 -16t-55 -7q-42 0 -73 16t-36 50v352h-57v43h57v87z" />
    <glyph glyph-name="u" unicode="u" horiz-adv-x="454" 
d="M64 454v-302q0 -53 33 -87.5t82 -34.5q1 0 5 -0.5t5 -0.5q68 0 122.5 50.5t54.5 115.5v259h59v-452h-59v86q-10 -42 -72.5 -74t-129.5 -32q-68 0 -112.5 39.5t-44.5 123.5v309h57z" />
    <glyph glyph-name="v" unicode="v" horiz-adv-x="465" 
d="M66 454l157 -409l159 409h57l-178 -452h-73l-179 452h57z" />
    <glyph glyph-name="w" unicode="w" horiz-adv-x="790" 
d="M5 454h58l157 -409l137 409h57l124 -409l157 409h66l-195 -452h-64l-116 394l-136 -394h-66z" />
    <glyph glyph-name="x" unicode="x" horiz-adv-x="435" 
d="M32 454h72l100 -172l116 172h64l-150 -208l171 -244h-64l-137 200l-136 -200h-57l164 244z" />
    <glyph glyph-name="y" unicode="y" horiz-adv-x="502" 
d="M38 454h64l150 -409l159 409h64l-230 -545q-20 -51 -60.5 -90.5t-95.5 -39.5q-34 0 -73 16l-7 57q36 -27 71 -27q25 0 46 14.5t39 43.5t27.5 49t23.5 55z" />
    <glyph glyph-name="z" unicode="z" horiz-adv-x="360" 
d="M23 411v43h309v-58l-266 -351h259v-43h-316v50l273 359h-259z" />
    <glyph glyph-name="braceleft" unicode="{" horiz-adv-x="215" 
d="M191 598v-35q-4 0 -14 1.5t-14 1.5q-27 0 -36 -22.5t-9 -63.5v-212q0 -2 -0.5 -5.5t-4 -14t-9.5 -19t-19 -18.5t-31 -16q66 -23 66 -84q0 -3 -1 -11t-1 -12v-165q0 -25 0.5 -36t2.5 -25.5t7.5 -19t15 -8.5t24.5 -4h23v-35h-25q-52 0 -78.5 16.5t-26.5 33.5v228q0 6 1 17
t1 15q0 42 -14.5 57.5t-29.5 15t-15 2.5v36q7 5 23 5t25 9t9 38q0 223 7 266q4 25 11 36.5t33 19.5t79 8z" />
    <glyph glyph-name="bar" unicode="|" horiz-adv-x="92" 
d="M4 605h57v-603h-57v603z" />
    <glyph glyph-name="braceright" unicode="}" horiz-adv-x="215" 
d="M13 605h26q13 0 24 -1.5t18.5 -3t14 -6t9.5 -6t7.5 -9t5.5 -9.5t4.5 -11t4.5 -11v-259q0 -63 64 -73v-36q-6 0 -14.5 -1t-26 -9.5t-23.5 -24.5v-272q0 -71 -95 -71h-27v28q50 5 55 8t10 35q4 36 4 141.5t3 130.5q0 14 14 31t43 26q-23 4 -41 25.5t-18 47.5q0 2 1 7.5
t1 6.5l-4 -21v3q0 6 2 91t2 126v46q-4 23 -12 29.5t-26 6.5h-26v35z" />
    <glyph glyph-name="asciitilde" unicode="~" horiz-adv-x="483" 
d="M9 209q9 1 21.5 20t35 37t57.5 18q49 0 131 -38q46 -26 76 -26q28 0 50 15.5t30 30.5l8 16l37 -36q-2 -3 -5 -9t-14.5 -20t-25 -25t-35 -20t-45.5 -9q-38 0 -84 25q-12 1 -51 21t-63 20q-47 0 -87 -63z" />
    <glyph glyph-name="exclamdown" unicode="&#xa1;" horiz-adv-x="101" 
d="M11 339h57v-494h-57v494zM75 454v-65h-71v65h71z" />
    <glyph glyph-name="cent" unicode="&#xa2;" horiz-adv-x="368" 
d="M173 541v79h50v-79h20q47 0 87 -14l8 -57q-12 7 -46 16t-69 9q-141 0 -166 -163q0 -4 -1 -13t-1 -12q0 -101 55.5 -149.5t132.5 -48.5q34 0 80 14l15 -43q-86 -14 -115 -14v-71h-50v71q-84 18 -127.5 83t-43.5 147q0 92 48.5 166t122.5 79z" />
    <glyph glyph-name="sterling" unicode="&#xa3;" horiz-adv-x="463" 
d="M75 325q-10 16 -30 67t-20 62q-4 20 -4 32q0 92 104 119q34 11 98 11q67 0 111 -11l7 -50q0 3 -15 7t-40.5 7.5t-51.5 3.5q-58 0 -101 -19t-51 -63q0 -1 -1 -7t-1 -7q0 -25 9.5 -54t24.5 -60t18 -38h202l-7 -43h-181q0 -13 4 -42t4 -44q0 -59 -50 -116q24 6 44 6
q36 0 99 -27t103 -27q37 0 86 20l-15 -57q0 -2 -28 -2q-18 0 -52 1t-36 1q-19 6 -61.5 22.5t-72.5 25.5t-53 9q-16 0 -34 -9t-37.5 -23t-28.5 -18v57q0 5 13 15t28 23.5t28 46t13 77.5q0 19 -4 61h-92l7 43h64z" />
    <glyph glyph-name="fraction" unicode="&#x2044;" horiz-adv-x="388" 
d="M298 613h65l-302 -611h-57z" />
    <glyph glyph-name="yen" unicode="&#xa5;" horiz-adv-x="502" 
d="M204 2v230h-166v36h166l-52 86h-122v42h93l-121 209h64l173 -287l165 287h73l-131 -209h95v-42h-123l-57 -86h173v-36h-173v-230h-57z" />
    <glyph glyph-name="florin" unicode="&#x192;" 
 />
    <glyph glyph-name="section" unicode="&#xa7;" horiz-adv-x="408" 
d="M14 268v-2q1 0 6 15t27 42.5t60 51.5q-29 15 -45.5 44t-16.5 61q0 56 42.5 98.5t117.5 42.5q49 0 104 -16l14 -57q-50 36 -102 36q-49 0 -82.5 -34.5t-33.5 -76.5q0 -25 15.5 -48t43.5 -36q103 -43 158 -99.5t55 -112.5q0 -81 -104 -139q26 -16 41.5 -48.5t15.5 -68.5
q0 -46 -26.5 -83.5t-80.5 -50.5q-36 -3 -55 -3q-74 0 -104 18l-7 50q75 -25 114 -25q70 0 95 60q9 27 9 45q0 32 -28 58.5t-67.5 46.5l-79 42t-67.5 56.5t-28 78.5q0 22 9 54zM136 332q-29 -4 -55 -37t-26 -84q0 -2 1 -7.5t1 -8.5q2 -20 25.5 -42t47 -36t61.5 -33.5
t47 -24.5q39 7 64 46t25 72q0 14 -4 18q-5 42 -61.5 81t-125.5 56z" />
    <glyph glyph-name="currency" unicode="&#xa4;" horiz-adv-x="502" 
d="M45 534l50 -50q50 50 143 50q87 0 137 -50l59 50l43 -36l-52 -44q-4 -4 -4 -6q0 -3 11.5 -21t23.5 -48t12 -63q0 -68 -50 -150l52 -50l-36 -36l-52 50q-7 -6 -19 -14.5t-49.5 -22.5t-74.5 -14q-74 0 -144 51l-50 -50l-43 43l50 43v2q0 2 -12 20.5t-23.5 49.5t-11.5 64
q0 68 54 144l-57 52zM225 130q4 0 13 -1.5t12 -1.5q70 0 114.5 58t44.5 131q0 99 -70 138q-52 28 -103 28q-59 0 -103 -36.5t-60 -91.5q-14 -44 -14 -68q0 -60 42 -104t124 -52z" />
    <glyph glyph-name="quotesingle" unicode="'" horiz-adv-x="149" 
d="M46 598h79l-86 -144h-35z" />
    <glyph glyph-name="quotedblleft" unicode="&#x201c;" horiz-adv-x="761" 
d="M11 620h287v-43h-123v-331h-50v331h-114v43zM738 246h-43v302l-138 -302h-50l-137 302v-302h-43v374h57l152 -324l143 324h59v-374z" />
    <glyph glyph-name="guillemotleft" unicode="&#xab;" horiz-adv-x="292" 
d="M134 232l87 164h43l-71 -164l71 -152h-50zM5 232l86 164h43l-71 -164l71 -152h-50z" />
    <glyph glyph-name="guilsinglleft" unicode="&#x2039;" horiz-adv-x="474" 
d="M2 188v73l439 193v-65l-396 -166l396 -171v-65z" />
    <glyph glyph-name="guilsinglright" unicode="&#x203a;" horiz-adv-x="483" 
d="M9 484l446 -209v-80l-446 -200v64l395 173l-395 186v66z" />
    <glyph glyph-name="fi" unicode="&#xfb01;" 
 />
    <glyph glyph-name="fl" unicode="&#xfb02;" 
 />
    <glyph glyph-name="endash" unicode="&#x2013;" horiz-adv-x="388" 
d="M307 195q0 83 -23 117t-55 34q-25 0 -43.5 -16t-27 -41t-12 -48t-3.5 -46q0 -25 2.5 -50t9.5 -57t24 -52t42 -20q86 0 86 179zM91 195q5 88 38.5 137.5t91.5 49.5q62 0 100 -47t38 -140q0 -98 -33.5 -156.5t-104.5 -58.5q-38 0 -65 21t-40.5 55t-19 68t-5.5 71z" />
    <glyph glyph-name="dagger" unicode="&#x2020;" 
 />
    <glyph glyph-name="daggerdbl" unicode="&#x2021;" 
 />
    <glyph glyph-name="periodcentered" unicode="&#xb7;" horiz-adv-x="292" 
d="M7 404h259v-252h-259v252z" />
    <glyph glyph-name="paragraph" unicode="&#xb6;" horiz-adv-x="397" 
d="M366 620v-811h-43v775h-57v-775h-43v523q-38 -9 -60 -9q-71 0 -114.5 42.5t-43.5 98.5q0 62 54.5 109t154.5 47h152zM223 375v209q-32 0 -55 -3.5t-52 -14t-46.5 -37t-19.5 -66.5q0 -51 33 -78.5t78 -27.5q30 0 62 18z" />
    <glyph glyph-name="bullet" unicode="&#x2022;" horiz-adv-x="167" 
d="M5 634h86l50 -136h-43z" />
    <glyph glyph-name="quotesinglbase" unicode="&#x201a;" 
 />
    <glyph glyph-name="quotedblbase" unicode="&#x201e;" 
 />
    <glyph glyph-name="quotedblright" unicode="&#x201d;" horiz-adv-x="215" 
d="M127 605h59v-142h-59v142zM5 605h58v-142h-58v142z" />
    <glyph glyph-name="guillemotright" unicode="&#xbb;" horiz-adv-x="293" 
d="M138 396h35l95 -157l-95 -159h-43l74 159zM16 396h36l93 -157l-93 -159h-43l71 159z" />
    <glyph glyph-name="ellipsis" unicode="&#x2026;" 
 />
    <glyph glyph-name="perthousand" unicode="&#x2030;" 
 />
    <glyph glyph-name="questiondown" unicode="&#xbf;" horiz-adv-x="379" 
d="M152 454h73v-65h-73v65zM23 38l-2 -2h-1q0 2 30.5 44.5t37.5 49.5q45 46 58 77t13 75v64h52v-114q0 -32 -22.5 -64t-57.5 -70t-51 -68q-23 -41 -23 -62q0 -27 20.5 -46.5t44 -27.5t48.5 -14t26 -7q86 0 150 29v-43q-85 -22 -114 -22h-7q-38 0 -72.5 5.5t-70 18
t-56.5 38.5t-21 63q0 24 18 76z" />
    <glyph glyph-name="grave" unicode="`" horiz-adv-x="158" 
d="M127 605l-43 -142h-79l86 142h36z" />
    <glyph glyph-name="acute" unicode="&#xb4;" horiz-adv-x="158" 
d="M50 627h79l-79 -136h-43z" />
    <glyph glyph-name="circumflex" unicode="&#x2c6;" horiz-adv-x="474" 
d="M232 570l-159 -324h-64l186 359h73l180 -359h-66z" />
    <glyph glyph-name="tilde" unicode="&#x2dc;" horiz-adv-x="483" 
d="M9 209q9 1 21.5 20t35 37t57.5 18q49 0 131 -38q46 -26 76 -26q28 0 50 15.5t30 30.5l8 16l37 -36q-2 -3 -5 -9t-14.5 -20t-25 -25t-35 -20t-45.5 -9q-38 0 -84 25q-12 1 -51 21t-63 20q-47 0 -87 -63z" />
    <glyph glyph-name="macron" unicode="&#xaf;" 
 />
    <glyph glyph-name="breve" unicode="&#x2d8;" 
 />
    <glyph glyph-name="dotaccent" unicode="&#x2d9;" 
 />
    <glyph glyph-name="dieresis" unicode="&#xa8;" horiz-adv-x="224" 
d="M7 598h64v-50h-64v50zM129 598h66v-50h-66v50z" />
    <glyph glyph-name="ring" unicode="&#x2da;" 
 />
    <glyph glyph-name="cedilla" unicode="&#xb8;" horiz-adv-x="176" 
d="M100 -41h50l-57 -114h-86z" />
    <glyph glyph-name="hungarumlaut" unicode="&#x2dd;" 
 />
    <glyph glyph-name="ogonek" unicode="&#x2db;" 
 />
    <glyph glyph-name="caron" unicode="&#x2c7;" 
 />
    <glyph glyph-name="emdash" unicode="&#x2014;" 
 />
    <glyph glyph-name="AE" unicode="&#xc6;" horiz-adv-x="770" 
d="M398 563l50 -224h259v-57h-244l58 -237h208v-43h-259l-65 273h-201l-129 -273h-64l287 611h447v-50h-347zM391 339l-50 224l-109 -224h159z" />
    <glyph glyph-name="ordfeminine" unicode="&#xaa;" horiz-adv-x="263" 
d="M20 477q12 6 39 15t47 15l21 6q59 12 59 42q0 14 -16.5 25t-39.5 11h-17l-86 -21v43q50 14 94 14q38 0 63 -7q55 -5 55 -95q0 -17 -1.5 -46.5t-1.5 -39.5v-85h-43v144q-80 -28 -109 -35q-17 -7 -27.5 -21t-10.5 -28q0 -22 24 -32q17 -5 26 -5q14 0 30.5 3.5t26.5 8
t10 7.5l-8 -50q0 -5 -41 -5q-43 0 -78.5 16.5t-35.5 55.5q0 26 20 64z" />
    <glyph glyph-name="Lslash" unicode="&#x141;" 
 />
    <glyph glyph-name="Oslash" unicode="&#xd8;" horiz-adv-x="674" 
d="M484 591l43 64h57l-64 -85q61 -39 94.5 -112t33.5 -154t-32.5 -151t-104 -117t-170.5 -47q-81 0 -182 34l-43 -64h-50l57 86q-61 50 -93 118t-32 141q0 129 86 225t227 96q83 0 173 -34zM455 548q-80 29 -150 29q-85 0 -142.5 -44t-82.5 -115q-21 -66 -21 -120
q0 -69 25 -127.5t68 -82.5zM491 527l-302 -461q85 -36 147 -36q49 0 98 22q87 32 121 136q24 58 24 126q0 66 -23 123.5t-65 89.5z" />
    <glyph glyph-name="OE" unicode="&#x152;" 
 />
    <glyph glyph-name="ordmasculine" unicode="&#xba;" horiz-adv-x="322" 
d="M152 620h11q55 0 88.5 -40.5t37.5 -95.5q0 -61 -36.5 -106.5t-107.5 -45.5q-66 11 -102 52.5t-36 92.5q0 56 40.5 99.5t104.5 43.5zM152 577h-14q-86 0 -86 -107q4 -37 26 -68t51 -31q1 0 7.5 2t8.5 2l4 -1q4 -1 5 -1q37 0 63 34.5t26 76.5q0 38 -23 65.5t-68 27.5z" />
    <glyph glyph-name="ae" unicode="&#xe6;" horiz-adv-x="742" 
d="M9 166q0 4 10.5 18t33.5 33t49 29q12 4 39.5 11.5l45.5 12.5t43 14.5t45 19.5q52 23 52 64q0 30 -32.5 54t-78.5 24h-21q-14 -4 -60.5 -13.5t-75.5 -21.5l-7 43q66 32 153 32q68 0 115.5 -24.5t47.5 -72.5q21 43 65.5 69t93.5 26t86 -21q32 -10 54 -34t31.5 -54.5
t12.5 -53t3 -44.5v-16h-339q0 -105 42.5 -161.5t145.5 -61.5q15 0 60.5 9.5t55.5 18.5l-8 -57q0 -3 -27.5 -6t-52.5 -3t-28 2q-76 0 -127.5 22t-81.5 78q-29 54 -29 86q0 28 7 108q-24 -24 -77 -49t-82 -31q-4 -1 -64 -21q-23 -9 -35.5 -30t-12.5 -45q0 -21 12 -47
q27 -37 93 -37q44 0 138 23l-15 -43q-64 -14 -110 -14q-99 0 -141 43q-34 26 -34 59q0 7 2.5 27.5t2.5 34.5zM655 296v11q0 42 -31 88t-76 46q-14 0 -21 -2h-13q-18 0 -33.5 -4.5t-26.5 -10t-22 -17t-17 -19t-13.5 -24t-10 -23l-9 -24t-7.5 -21.5h280z" />
    <glyph glyph-name="dotlessi" unicode="&#x131;" 
 />
    <glyph glyph-name="lslash" unicode="&#x142;" 
 />
    <glyph glyph-name="oslash" unicode="&#xf8;" horiz-adv-x="492" 
d="M102 30q-48 33 -75 87t-27 113q0 4 1 12t1 12q4 92 67.5 154.5t157.5 62.5q62 0 119 -25l29 59h50l-43 -80q81 -66 81 -196v-27q-3 -58 -23.5 -100.5t-52 -65.5t-65 -34t-70.5 -11q-62 0 -107 25l-36 -57h-50zM325 411q-32 25 -87 25q-58 0 -110 -31t-69 -80
q-18 -49 -18 -87q0 -98 82 -165zM159 52q52 -23 98 -23q65 0 108.5 41t52.5 103q3 23 3 45q0 49 -17 97t-43 74z" />
    <glyph glyph-name="oe" unicode="&#x153;" 
 />
    <glyph glyph-name="germandbls" unicode="&#xdf;" horiz-adv-x="435" 
d="M2 491q5 71 49.5 107t109.5 36q81 0 122.5 -25t41.5 -102v-30q-3 -23 -19.5 -36.5t-37.5 -23.5t-29 -21q-12 -17 -12 -30q0 -22 26.5 -42.5t61.5 -41t46 -36.5q17 -10 32.5 -49.5t15.5 -80.5q0 -52 -34.5 -87.5t-108.5 -35.5q-50 0 -114 16l-7 43q12 0 53.5 -11t64.5 -11
q74 0 91 93v15q0 47 -46.5 92t-89.5 66q-15 7 -25.5 27t-10.5 41q0 25 14.5 48.5t42.5 33.5q38 3 38 54q0 22 -9 44.5t-22 32.5q-26 18 -71 18q-49 0 -86 -29.5t-37 -88.5v-475h-50v489z" />
    <glyph glyph-name="brokenbar" unicode="&#xa6;" horiz-adv-x="120" 
d="M34 613h57v-618h-57v618z" />
    <glyph glyph-name="copyright" unicode="&#xa9;" horiz-adv-x="685" 
d="M343 613q33 0 67.5 -6.5t73.5 -21.5t74 -45t58 -70q41 -84 41 -163q0 -119 -98 -234q-34 -39 -93 -60.5t-125 -21.5q-142 0 -236 82q-103 99 -103 227q0 125 92.5 219t230.5 94h18zM438 491l14 -45q-60 17 -104 17q-47 0 -81.5 -17.5t-51 -45t-24 -53.5t-7.5 -51
q4 -86 41.5 -124t119.5 -38q34 0 100 11v-43q-55 -16 -99 -16q-38 0 -73 10t-68 31.5t-54 63t-24 98.5q0 4 -1 11t-1 9q0 93 61 144.5t152 51.5q49 0 100 -14zM595 389q-19 87 -93.5 134.5t-167.5 47.5q-58 0 -105 -16q-79 -27 -126.5 -101.5t-47.5 -160.5q0 -94 61 -168
t177 -95q8 0 25.5 -2.5t26.5 -2.5q65 0 116.5 28t81.5 72.5t45.5 93.5t15.5 97q0 39 -9 73z" />
    <glyph glyph-name="logicalnot" unicode="&#xac;" horiz-adv-x="474" 
d="M9 346h439v-237h-59v180h-380v57z" />
    <glyph glyph-name="registered" unicode="&#xae;" horiz-adv-x="665" 
d="M338 620q130 0 212.5 -91.5t88.5 -217.5v-18q0 -59 -18.5 -111.5t-55 -96t-97 -70t-138.5 -28.5h-14q-99 0 -170 45.5t-103 114t-32 148.5q0 82 33.5 154.5t103 121t159.5 49.5h31zM200 491h123q59 0 90.5 -26.5t31.5 -62.5t-28 -67t-72 -39l123 -166h-59l-136 195
q22 -4 32 -4q43 0 69 23t26 52q0 24 -18.5 41t-51.5 17h-85v-324h-45v361zM114 484q-19 -23 -31.5 -55.5t-15.5 -53.5l-3 -21q-3 -39 -3 -41q0 -112 72 -198t185 -86q2 0 6 0.5t6 0.5q94 0 165 58.5t87 150.5q6 27 6 59q0 67 -30 130t-85 104.5t-121 44.5h-32
q-120 0 -206 -93z" />
    <glyph glyph-name="degree" unicode="&#xb0;" horiz-adv-x="204" 
d="M93 670q40 -4 63.5 -27.5t23.5 -49.5v-9q0 -33 -25 -56t-62 -23q-43 0 -68 24.5t-25 56.5q0 33 24.5 58.5t61.5 25.5h7zM93 641q-31 0 -47.5 -16.5t-16.5 -40.5q0 -23 16.5 -36.5t47.5 -13.5q29 1 44 17t15 35q0 22 -16.5 38.5t-42.5 16.5z" />
    <glyph glyph-name="plusminus" unicode="&#xb1;" horiz-adv-x="43" 
d="M789 -388z" />
    <glyph glyph-name="twosuperior" unicode="&#xb2;" horiz-adv-x="43" 
d="M789 -388z" />
    <glyph glyph-name="threesuperior" unicode="&#xb3;" horiz-adv-x="43" 
d="M789 -388z" />
    <glyph glyph-name="mu" unicode="&#x3bc;" horiz-adv-x="43" 
d="M789 -388z" />
    <glyph glyph-name="onesuperior" unicode="&#xb9;" horiz-adv-x="43" 
d="M789 -388z" />
    <glyph glyph-name="onequarter" unicode="&#xbc;" horiz-adv-x="43" 
d="M789 -388z" />
    <glyph glyph-name="onehalf" unicode="&#xbd;" horiz-adv-x="43" 
d="M789 -388z" />
    <glyph glyph-name="threequarters" unicode="&#xbe;" horiz-adv-x="43" 
d="M789 -388z" />
    <glyph glyph-name="Agrave" unicode="&#xc0;" horiz-adv-x="645" 
d="M7 2l288 611h78l245 -611h-72l-108 287h-238l-121 -287h-72zM423 332l-93 238l-116 -238h209zM243 793h87l58 -138h-50z" />
    <glyph glyph-name="Aacute" unicode="&#xc1;" horiz-adv-x="645" 
d="M2 2l287 611h79l245 -611h-72l-109 287h-237l-122 -287h-71zM418 332l-93 238l-116 -238h209zM332 786h72l-72 -138h-43z" />
    <glyph glyph-name="Acircumflex" unicode="&#xc2;" horiz-adv-x="645" 
d="M236 648l44 109h108l50 -109h-43l-57 66l-58 -66h-44zM7 2l288 611h78l245 -611h-72l-108 287h-238l-121 -287h-72zM423 332l-93 238l-116 -238h209z" />
    <glyph glyph-name="Atilde" unicode="&#xc3;" horiz-adv-x="647" 
d="M5 2h72l121 287h238l109 -287h71l-245 611h-78zM421 332h-208l116 238zM205 684h8h35v37q5 22 23 22q15 0 66 -34t76 -34q34 0 51 46v58h-35q-2 -12 -3 -19l-2 -13.5t-2.5 -9.5t-2 -5.5t-3 -4t-4 -2t-5.5 -2t-7 -2.5l-4 -1q-7 0 -59.5 34t-79.5 34q-11 0 -16 -2
q-28 -9 -28 -43z" />
    <glyph glyph-name="Adieresis" unicode="&#xc4;" horiz-adv-x="645" 
d="M7 2l288 611h78l245 -611h-72l-108 287h-238l-121 -287h-72zM423 332l-93 238l-116 -238h209zM338 757v-57h-65v57h65zM395 757h64v-57h-64v57z" />
    <glyph glyph-name="Aring" unicode="&#xc5;" horiz-adv-x="645" 
d="M7 2l288 611h78l245 -611h-72l-108 287h-238l-121 -287h-72zM423 332l-93 238l-116 -238h209zM359 814h9q26 0 45.5 -23.5t24.5 -54.5v-16q0 -30 -20 -51t-59 -21t-62.5 25.5t-23.5 58.5q0 32 23.5 57t62.5 25zM359 786q-57 -8 -57 -65q5 -16 23 -30t34 -14
q25 0 39.5 17.5t14.5 39.5q0 20 -13.5 36t-35.5 16h-5z" />
    <glyph glyph-name="Ccedilla" unicode="&#xc7;" horiz-adv-x="531" 
d="M4 304q4 160 89.5 237t238.5 77q72 0 147 -13l14 -64q-86 25 -168 25q-117 0 -187 -63.5t-70 -198.5q0 -2 -1 -6.5t-1 -6.5q0 -135 74 -199.5t189 -64.5q85 0 171 32l-7 -57q-82 -18 -163 -18q-157 0 -241.5 84.5t-84.5 235.5zM277 -63h50l-57 -114h-88z" />
    <glyph glyph-name="Egrave" unicode="&#xc8;" horiz-adv-x="406" 
d="M2 613h373v-43h-309v-238h280v-43h-280v-244h302v-43h-366v611zM73 786h88l50 -138h-43z" />
    <glyph glyph-name="Eacute" unicode="&#xc9;" horiz-adv-x="406" 
d="M9 613h373v-43h-309v-238h281v-43h-281v-244h302v-43h-366v611zM189 786h79l-79 -138h-44z" />
    <glyph glyph-name="Ecircumflex" unicode="&#xca;" horiz-adv-x="406" 
d="M4 613h373v-43h-309v-238h280v-43h-280v-244h302v-43h-366v611zM96 641l43 109h109l50 -109h-43l-57 66l-59 -66h-43z" />
    <glyph glyph-name="Edieresis" unicode="&#xcb;" horiz-adv-x="406" 
d="M2 613h373v-43h-309v-238h280v-43h-280v-244h302v-43h-366v611zM116 714h66v-51h-66v51zM239 714h65v-51h-65v51z" />
    <glyph glyph-name="Igrave" unicode="&#xcc;" horiz-adv-x="167" 
d="M5 779h86l50 -138h-43zM63 613h64v-611h-64v611z" />
    <glyph glyph-name="Iacute" unicode="&#xcd;" horiz-adv-x="158" 
d="M55 793h79l-79 -138h-42zM5 613h65v-611h-65v611z" />
    <glyph glyph-name="Icircumflex" unicode="&#xce;" horiz-adv-x="235" 
d="M5 663l43 108h107l50 -108h-42l-58 66l-57 -66h-43zM63 613h64v-611h-64v611z" />
    <glyph glyph-name="Idieresis" unicode="&#xcf;" horiz-adv-x="215" 
d="M5 750h65v-50h-65v50zM127 750h64v-50h-64v50zM63 613h64v-611h-64v611z" />
    <glyph glyph-name="Eth" unicode="&#xd0;" horiz-adv-x="43" 
d="M789 -388z" />
    <glyph glyph-name="Ntilde" unicode="&#xd1;" horiz-adv-x="570" 
d="M5 613h79l396 -547v547h58v-611h-79l-396 539v-539h-58v611zM141 670q0 94 45 101h10q9 0 18.5 -2.5t21 -8l19 -9t20.5 -11.5l18 -11q4 -2 11.5 -7t12.5 -7.5l10.5 -5t10.5 -2.5q26 0 26 64h38q2 -16 2 -32q0 -76 -61 -76q-33 7 -79.5 40t-63.5 33q-14 -15 -14 -66h-45z
" />
    <glyph glyph-name="Ograve" unicode="&#xd2;" horiz-adv-x="674" 
d="M584 311q0 128 -69 197t-190 69q-129 0 -197.5 -80.5t-68.5 -200.5q0 -29 6.5 -60t24.5 -66t46 -62t75 -45t107 -18t107.5 16t76.5 42t48 61.5t26.5 71.5t7.5 75zM2 332q0 124 89.5 209.5t240.5 85.5q149 0 233.5 -82.5t84.5 -219.5q0 -35 -5 -70t-24.5 -83.5
t-51.5 -84.5t-93.5 -63t-143.5 -29h-16q-153 0 -234.5 88t-81.5 230q0 3 1 10t1 9zM246 807h86l50 -137h-43z" />
    <glyph glyph-name="Oacute" unicode="&#xd3;" horiz-adv-x="674" 
d="M584 311q0 128 -69 197t-190 69q-129 0 -197.5 -80.5t-68.5 -200.5q0 -29 6.5 -60t24.5 -66t46 -62t75 -45t107 -18t107.5 16t76.5 42t48 61.5t26.5 71.5t7.5 75zM2 332q0 124 89.5 209.5t240.5 85.5q149 0 233.5 -82.5t84.5 -219.5q0 -35 -5 -70t-24.5 -83.5
t-51.5 -84.5t-93.5 -63t-143.5 -29h-16q-153 0 -234.5 88t-81.5 230q0 3 1 10t1 9zM325 793h79l-79 -138h-43z" />
    <glyph glyph-name="Ocircumflex" unicode="&#xd4;" horiz-adv-x="674" 
d="M584 311q0 128 -69 197t-190 69q-129 0 -197.5 -80.5t-68.5 -200.5q0 -29 6.5 -60t24.5 -66t46 -62t75 -45t107 -18t107.5 16t76.5 42t48 61.5t26.5 71.5t7.5 75zM2 332q0 124 89.5 209.5t240.5 85.5q149 0 233.5 -82.5t84.5 -219.5q0 -35 -5 -70t-24.5 -83.5
t-51.5 -84.5t-93.5 -63t-143.5 -29h-16q-153 0 -234.5 88t-81.5 230q0 3 1 10t1 9zM225 684l43 109h107l52 -109h-45l-57 66l-57 -66h-43z" />
    <glyph glyph-name="Otilde" unicode="&#xd5;" horiz-adv-x="674" 
d="M584 311q0 128 -69 197t-190 69q-129 0 -197.5 -80.5t-68.5 -200.5q0 -29 6.5 -60t24.5 -66t46 -62t75 -45t107 -18t107.5 16t76.5 42t48 61.5t26.5 71.5t7.5 75zM2 332q0 124 89.5 209.5t240.5 85.5q149 0 233.5 -82.5t84.5 -219.5q0 -35 -5 -70t-24.5 -83.5
t-51.5 -84.5t-93.5 -63t-143.5 -29h-16q-153 0 -234.5 88t-81.5 230q0 3 1 10t1 9zM180 684q0 95 45 102h11q7 0 15.5 -2t15.5 -4.5t17.5 -8.5l15.5 -9l17 -10t15 -9q31 -20 45 -20q27 0 27 63h37q2 -16 2 -32q0 -77 -61 -77q-33 8 -79.5 40.5t-63.5 32.5q-14 -14 -14 -66
h-45z" />
    <glyph glyph-name="Odieresis" unicode="&#xd6;" horiz-adv-x="685" 
d="M589 311q0 128 -69 197t-190 69q-129 0 -197.5 -80.5t-68.5 -200.5q0 -29 6.5 -60t24.5 -66t46 -62t75 -45t107 -18t107.5 16t76.5 42t48 61.5t26.5 71.5t7.5 75zM7 332q0 124 89.5 209.5t241.5 85.5q148 0 232 -82.5t84 -219.5q0 -35 -5 -70t-24 -83.5t-51 -84.5
t-93 -63t-143 -29h-17q-152 0 -234 88.5t-82 229.5q0 3 1 10t1 9zM245 764h64v-50h-64v50zM366 764h64v-50h-64v50z" />
    <glyph glyph-name="multiply" unicode="&#xd7;" horiz-adv-x="724" 
d="M470 563q-96 7 -129 7q-55 0 -98.5 -9.5t-82 -32.5t-61 -67t-26.5 -107q0 -8 -1.5 -25t-1.5 -24q0 -65 19 -114t47.5 -77t68 -45.5t75.5 -23.5t75 -6q76 0 115 13v511zM527 2q-117 -13 -166 -13q-293 0 -340 204q-9 40 -12 141v12q0 28 5.5 58t26.5 71t55 71.5t98.5 52.5
t150.5 22q77 0 132 -8h216v-43h-166v-238h166v-43h-166v-244h166v-43h-166z" />
    <glyph glyph-name="Ugrave" unicode="&#xd9;" horiz-adv-x="560" 
d="M463 620h64v-411q0 -112 -65 -163t-201 -51q-107 0 -180.5 49.5t-73.5 144.5q0 2 1 6.5t1 6.5v418h64v-411q0 -41 13 -72.5t32.5 -49.5t45.5 -29.5t49.5 -15.5t47.5 -4q38 0 71.5 8t64 26t48.5 53t18 84v411zM175 779h86l50 -138h-43z" />
    <glyph glyph-name="Uacute" unicode="&#xda;" horiz-adv-x="560" 
d="M463 620h64v-411q0 -112 -65 -163t-201 -51q-107 0 -180.5 49.5t-73.5 144.5q0 2 1 6.5t1 6.5v418h64v-411q0 -41 13 -72.5t32.5 -49.5t45.5 -29.5t49.5 -15.5t47.5 -4q38 0 71.5 8t64 26t48.5 53t18 84v411zM268 793h78l-78 -138h-43z" />
    <glyph glyph-name="Ucircumflex" unicode="&#xdb;" horiz-adv-x="560" 
d="M463 620h64v-411q0 -112 -65 -163t-201 -51q-107 0 -180.5 49.5t-73.5 144.5q0 2 1 6.5t1 6.5v418h64v-411q0 -41 13 -72.5t32.5 -49.5t45.5 -29.5t49.5 -15.5t47.5 -4q38 0 71.5 8t64 26t48.5 53t18 84v411zM159 684l45 109h107l50 -109h-43l-57 66l-57 -66h-45z" />
    <glyph glyph-name="Udieresis" unicode="&#xdc;" horiz-adv-x="551" 
d="M455 620h65v-411q0 -112 -65 -163t-201 -51q-108 0 -181 49.5t-73 144.5q0 2 1 6.5t1 6.5v418h64v-411q0 -41 13 -72.5t32.5 -49.5t45.5 -29.5t49.5 -15.5t47.5 -4q38 0 71 8t63.5 26t48.5 53t18 84v411zM159 771h66v-50h-66v50zM282 771h64v-50h-64v50z" />
    <glyph glyph-name="Yacute" unicode="&#xdd;" horiz-adv-x="43" 
d="M789 -388z" />
    <glyph glyph-name="Thorn" unicode="&#xde;" horiz-adv-x="43" 
d="M789 -388z" />
    <glyph glyph-name="agrave" unicode="&#xe0;" horiz-adv-x="417" 
d="M332 2v266q-49 -30 -128 -52q-147 -29 -147 -107q0 -2 1 -6.5t1 -7.5q5 -35 37 -51.5t77 -16.5q55 0 102 18l-7 -43q-40 -15 -109 -15q-29 0 -54.5 5.5t-49 18.5t-38 38t-15.5 60q0 57 43.5 89.5t149.5 62.5q13 4 34.5 9t32.5 8t26 9t22.5 13t13.5 18.5t8 27.5v4
q0 34 -36 50t-89 16q-90 0 -155 -27l7 50q69 22 146 22q79 0 131.5 -28t52.5 -87v-344h-57zM116 627h88l50 -136h-43z" />
    <glyph glyph-name="aacute" unicode="&#xe1;" horiz-adv-x="426" 
d="M339 2v266q-46 -29 -128 -52q-147 -29 -147 -107q0 -2 1 -6.5t1 -7.5q5 -34 38 -51t78 -17q54 0 100 18l-7 -43q-40 -15 -109 -15q-64 0 -109 27.5t-48 94.5q0 57 44 89.5t151 62.5q13 4 39.5 10.5t37.5 10.5t26.5 12t22.5 21t9 31v4q0 34 -35.5 50t-89.5 16
q-90 0 -155 -27l7 50q69 22 147 22t130.5 -28t52.5 -87v-344h-57zM239 627h79l-79 -136h-44z" />
    <glyph glyph-name="acircumflex" unicode="&#xe2;" horiz-adv-x="417" 
d="M332 2v266q-49 -30 -128 -52q-147 -29 -147 -107q0 -2 1 -6.5t1 -7.5q5 -35 37 -51.5t77 -16.5q55 0 102 18l-7 -43q-40 -15 -109 -15q-29 0 -54.5 5.5t-49 18.5t-38 38t-15.5 60q0 57 43.5 89.5t149.5 62.5q13 4 34.5 9t32.5 8t26 9t22.5 13t13.5 18.5t8 27.5v4
q0 34 -36 50t-89 16q-90 0 -155 -27l7 50q69 22 146 22q79 0 131.5 -28t52.5 -87v-344h-57zM109 513l43 107h109l50 -107h-43l-57 64l-59 -64h-43z" />
    <glyph glyph-name="atilde" unicode="&#xe3;" horiz-adv-x="417" 
d="M332 2v266q-49 -30 -128 -52q-147 -29 -147 -107q0 -2 1 -6.5t1 -7.5q5 -35 37 -51.5t77 -16.5q55 0 102 18l-7 -43q-40 -15 -109 -15q-29 0 -54.5 5.5t-49 18.5t-38 38t-15.5 60q0 57 43.5 89.5t149.5 62.5q13 4 34.5 9t32.5 8t26 9t22.5 13t13.5 18.5t8 27.5v4
q0 34 -36 50t-89 16q-90 0 -155 -27l7 50q69 22 146 22q79 0 131.5 -28t52.5 -87v-344h-57zM73 520q0 93 43 100h11q9 0 18.5 -2.5t20.5 -8l18.5 -9.5l21.5 -12l19 -11q31 -20 45 -20q26 0 26 63h36q2 -16 2 -32q0 -75 -59 -75q-33 7 -80.5 39t-64.5 32q-14 -14 -14 -64h-43
z" />
    <glyph glyph-name="adieresis" unicode="&#xe4;" horiz-adv-x="417" 
d="M332 2v266q-49 -30 -128 -52q-147 -29 -147 -107q0 -2 1 -6.5t1 -7.5q5 -35 37 -51.5t77 -16.5q55 0 102 18l-7 -43q-40 -15 -109 -15q-29 0 -54.5 5.5t-49 18.5t-38 38t-15.5 60q0 57 43.5 89.5t149.5 62.5q13 4 34.5 9t32.5 8t26 9t22.5 13t13.5 18.5t8 27.5v4
q0 34 -36 50t-89 16q-90 0 -155 -27l7 50q69 22 146 22q79 0 131.5 -28t52.5 -87v-344h-57zM116 598h64v-50h-64v50zM239 598h65v-50h-65v50z" />
    <glyph glyph-name="aring" unicode="&#xe5;" horiz-adv-x="426" 
d="M339 2v266q-46 -29 -128 -52q-147 -29 -147 -107q0 -2 1 -6.5t1 -7.5q5 -34 38 -51t78 -17q54 0 100 18l-7 -43q-40 -15 -109 -15q-64 0 -109 27.5t-48 94.5q0 57 44 89.5t151 62.5q13 4 39.5 10.5t37.5 10.5t26.5 12t22.5 21t9 31v4q0 34 -35.5 50t-89.5 16
q-90 0 -155 -27l7 50q69 22 147 22t130.5 -28t52.5 -87v-344h-57zM225 670q40 -4 63 -26.5t23 -48.5v-11q0 -33 -24.5 -56t-61.5 -23q-44 0 -68.5 24t-24.5 57t23.5 58.5t62.5 25.5h7zM225 641q-32 0 -49 -16.5t-17 -40.5q0 -23 16.5 -36.5t49.5 -13.5q27 1 43 17t16 35
q0 21 -16.5 38t-42.5 17z" />
    <glyph glyph-name="ccedilla" unicode="&#xe7;" horiz-adv-x="377" 
d="M4 239q1 68 20.5 116t53 73t70.5 36t82 11q53 0 111 -12l7 -59q-57 26 -121 26q-73 0 -119.5 -47t-46.5 -144q0 -94 43.5 -146t124.5 -52q42 0 119 25l-14 -57q-61 -9 -98 -9q-111 0 -171.5 59t-60.5 180zM198 -41h43l-52 -107h-85z" />
    <glyph glyph-name="egrave" unicode="&#xe8;" horiz-adv-x="435" 
d="M346 296v15q0 56 -33 88.5t-88 32.5q-35 -2 -61.5 -8.5t-43 -19.5t-26.5 -23t-16 -29.5t-7.5 -27.5t-4.5 -28h280zM2 239q0 119 64.5 178.5t151.5 59.5q83 0 135 -56.5t52 -132.5q0 -4 -0.5 -13t-0.5 -14h-345q0 -120 49 -171.5t126 -51.5q59 0 141 28l-7 -50
q-75 -20 -134 -20q-105 0 -168.5 61t-63.5 182zM102 627h86l51 -136h-44z" />
    <glyph glyph-name="eacute" unicode="&#xe9;" horiz-adv-x="435" 
d="M354 296v15q0 56 -33.5 88.5t-88.5 32.5q-41 -2 -71 -13t-45 -22.5t-25 -34t-12.5 -33t-5.5 -33.5h281zM9 239q0 119 64.5 178.5t151.5 59.5q84 0 136 -56.5t52 -132.5q0 -4 -1 -13t-1 -14h-345q0 -120 49 -171.5t126 -51.5q59 0 141 28l-7 -50q-75 -20 -134 -20
q-105 0 -168.5 61t-63.5 182zM239 634h79l-79 -136h-44z" />
    <glyph glyph-name="ecircumflex" unicode="&#xea;" horiz-adv-x="435" 
d="M354 296v15q0 56 -33.5 88.5t-88.5 32.5q-41 -2 -71 -13t-45 -22.5t-25 -34t-12.5 -33t-5.5 -33.5h281zM9 239q0 119 64.5 178.5t151.5 59.5q84 0 136 -56.5t52 -132.5q0 -4 -1 -13t-1 -14h-345q0 -120 49 -171.5t126 -51.5q59 0 141 28l-7 -50q-75 -20 -134 -20
q-105 0 -168.5 61t-63.5 182zM130 527l43 107h109l50 -107h-43l-57 64l-59 -64h-43z" />
    <glyph glyph-name="edieresis" unicode="&#xeb;" horiz-adv-x="435" 
d="M354 296v15q0 56 -33.5 88.5t-88.5 32.5q-41 -2 -71 -13t-45 -22.5t-25 -34t-12.5 -33t-5.5 -33.5h281zM9 239q0 119 64.5 178.5t151.5 59.5q84 0 136 -56.5t52 -132.5q0 -4 -1 -13t-1 -14h-345q0 -120 49 -171.5t126 -51.5q59 0 141 28l-7 -50q-75 -20 -134 -20
q-105 0 -168.5 61t-63.5 182zM138 613h66v-50h-66v50zM261 613h64v-50h-64v50z" />
    <glyph glyph-name="igrave" unicode="&#xec;" horiz-adv-x="167" 
d="M70 454h57v-452h-57v452zM5 627h86l50 -136h-43z" />
    <glyph glyph-name="iacute" unicode="&#xed;" horiz-adv-x="149" 
d="M4 454h57v-452h-57v452zM46 627h79l-79 -136h-42z" />
    <glyph glyph-name="icircumflex" unicode="&#xee;" horiz-adv-x="235" 
d="M70 454h57v-452h-57v452zM5 520l43 107h107l50 -107h-42l-58 64l-57 -64h-43z" />
    <glyph glyph-name="idieresis" unicode="&#xef;" horiz-adv-x="224" 
d="M71 454h58v-452h-58v452zM7 598h64v-50h-64v50zM129 598h64v-50h-64v50z" />
    <glyph glyph-name="eth" unicode="&#xf0;" horiz-adv-x="43" 
d="M789 -388z" />
    <glyph glyph-name="ntilde" unicode="&#xf1;" horiz-adv-x="445" 
d="M80 527q0 93 43 100h11q8 0 17 -2t15.5 -4.5t17.5 -8.5t16 -8.5t17 -10t15 -9.5q31 -20 45 -20q27 0 27 63h35q2 -16 2 -32q0 -75 -59 -75q-33 7 -79.5 39t-64.5 32q-15 -14 -15 -64h-43zM420 339v-337h-59v337q0 36 -36.5 58.5t-85.5 22.5q-65 0 -117.5 -43.5
t-62.5 -130.5v-244h-57v461h57v-102q18 45 75 73.5t121 28.5q65 0 112 -31t53 -93z" />
    <glyph glyph-name="ograve" unicode="&#xf2;" horiz-adv-x="483" 
d="M232 463q107 -6 165 -77t58 -170q0 -93 -57.5 -161t-158.5 -68h-7q-105 0 -164 69.5t-59 163.5q0 95 59.5 167.5t163.5 75.5zM232 418q-87 -5 -130 -62t-43 -140q6 -75 54.5 -130.5t125.5 -55.5q83 0 127.5 53t44.5 128q0 80 -48 143.5t-125 63.5h-6zM138 627h87l50 -136
h-43z" />
    <glyph glyph-name="oacute" unicode="&#xf3;" horiz-adv-x="483" 
d="M232 463q107 -6 165 -77t58 -170q0 -93 -57.5 -161t-158.5 -68h-7q-105 0 -164 69.5t-59 163.5q0 95 59.5 167.5t163.5 75.5zM232 418q-87 -5 -130 -62t-43 -140q6 -75 54.5 -130.5t125.5 -55.5q83 0 127.5 53t44.5 128q0 80 -48 143.5t-125 63.5h-6zM239 634h79
l-79 -136h-44z" />
    <glyph glyph-name="ocircumflex" unicode="&#xf4;" horiz-adv-x="483" 
d="M232 463q107 -6 165 -77t58 -170q0 -93 -57.5 -161t-158.5 -68h-7q-105 0 -164 69.5t-59 163.5q0 95 59.5 167.5t163.5 75.5zM232 418q-87 -5 -130 -62t-43 -140q6 -75 54.5 -130.5t125.5 -55.5q83 0 127.5 53t44.5 128q0 80 -48 143.5t-125 63.5h-6zM138 513l42 107h109
l50 -107h-43l-57 64l-59 -64h-42z" />
    <glyph glyph-name="otilde" unicode="&#xf5;" horiz-adv-x="474" 
d="M225 463q107 -6 165 -77t58 -170q0 -93 -57.5 -161t-158.5 -68h-7q-105 0 -164 69.5t-59 163.5q0 95 59.5 167.5t163.5 75.5zM225 418q-87 -5 -130 -62t-43 -140q6 -75 54.5 -130.5t125.5 -55.5q83 0 127.5 53t44.5 128q0 80 -48 143.5t-126 63.5h-5zM102 520
q0 93 43 100h10q9 0 19 -2.5t22 -8t19 -9t21 -12.5t18 -11q31 -20 44 -20q27 0 27 63h36q2 -16 2 -32q0 -75 -59 -75q-34 7 -81 39t-64 32q-14 -14 -14 -64h-43z" />
    <glyph glyph-name="odieresis" unicode="&#xf6;" horiz-adv-x="483" 
d="M227 463q107 -6 165 -77t58 -170q0 -93 -57.5 -161t-158.5 -68h-7q-105 0 -164 69.5t-59 163.5q0 96 59.5 168t163.5 75zM227 418q-87 -5 -130 -62t-43 -140q6 -75 54.5 -130.5t125.5 -55.5q83 0 127 53t44 128q0 81 -47.5 144t-125.5 63h-5zM132 591h64v-50h-64v50z
M255 591h65v-50h-65v50z" />
    <glyph glyph-name="divide" unicode="&#xf7;" horiz-adv-x="810" 
d="M405 332q26 54 81.5 96t120.5 42q80 0 126.5 -45.5t46.5 -142.5v-36h-337q0 -117 48.5 -169t124.5 -52q60 0 143 34l-14 -50q-80 -22 -138 -22q-72 0 -124 30.5t-69 98.5q-25 -59 -71.5 -91t-137.5 -38h-16q-83 0 -133.5 72t-50.5 166q0 63 22.5 116.5t72.5 90.5t120 38
q23 0 56 -11t73 -44.5t56 -82.5zM384 239q-8 54 -23 91t-37.5 56t-44.5 27.5t-52 11.5h-14q-70 0 -118.5 -50.5t-48.5 -142.5q0 -95 39 -152t113 -57q103 0 144.5 53.5t41.5 162.5zM738 282q1 9 1 25q0 47 -33 80.5t-92 37.5h-14q-44 0 -89.5 -36t-67.5 -107h295z" />
    <glyph glyph-name="ugrave" unicode="&#xf9;" horiz-adv-x="454" 
d="M61 439v-301q0 -54 33 -88t83 -34q1 0 5 -1t6 -1q66 0 120.5 50.5t54.5 115.5v259h58v-452h-58v86q-11 -41 -73.5 -73t-128.5 -32q-68 0 -112.5 39.5t-44.5 122.5v309h57zM118 627h87l50 -136h-42z" />
    <glyph glyph-name="uacute" unicode="&#xfa;" horiz-adv-x="454" 
d="M61 439v-301q0 -54 33 -88t83 -34q1 0 5 -1t6 -1q66 0 120.5 50.5t54.5 115.5v259h58v-452h-58v86q-11 -41 -73.5 -73t-128.5 -32q-68 0 -112.5 39.5t-44.5 122.5v309h57zM227 620h78l-78 -136h-43z" />
    <glyph glyph-name="ucircumflex" unicode="&#xfb;" horiz-adv-x="454" 
d="M61 439v-301q0 -54 33 -88t83 -34q1 0 5 -1t6 -1q66 0 120.5 50.5t54.5 115.5v259h58v-452h-58v86q-11 -41 -73.5 -73t-128.5 -32q-68 0 -112.5 39.5t-44.5 122.5v309h57zM104 513l42 107h109l50 -107h-42l-58 64l-59 -64h-42z" />
    <glyph glyph-name="udieresis" unicode="&#xfc;" horiz-adv-x="454" 
d="M64 439v-301q0 -53 33 -87.5t82 -34.5q1 0 5 -1t5 -1q68 0 122.5 50.5t54.5 115.5v259h59v-452h-59v86q-10 -41 -72.5 -73t-129.5 -32q-68 0 -112.5 39.5t-44.5 122.5v309h57zM121 598h67v-50h-67v50zM245 598h64v-50h-64v50z" />
    <glyph glyph-name="yacute" unicode="&#xfd;" horiz-adv-x="43" 
d="M789 -388z" />
    <glyph glyph-name="thorn" unicode="&#xfe;" horiz-adv-x="43" 
d="M789 -388z" />
    <glyph glyph-name="ydieresis" unicode="&#xff;" horiz-adv-x="502" 
d="M38 454h64l150 -409l159 409h64l-230 -545q-20 -51 -60.5 -90.5t-95.5 -39.5q-34 0 -73 16l-7 57q36 -27 71 -27q25 0 46 14.5t39 43.5t27.5 49t23.5 55zM152 605h64v-50h-64v50zM275 605h64v-50h-64v50z" />
    <glyph glyph-name="Scaron" unicode="&#x160;" 
 />
    <glyph glyph-name="Ydieresis" unicode="&#x178;" horiz-adv-x="502" 
d="M38 454h64l150 -409l159 409h64l-230 -545q-20 -51 -60.5 -90.5t-95.5 -39.5q-34 0 -73 16l-7 57q36 -27 71 -27q25 0 46 14.5t39 43.5t27.5 49t23.5 55zM152 605h64v-50h-64v50zM275 605h64v-50h-64v50z" />
    <glyph glyph-name="Zcaron" unicode="&#x17d;" 
 />
    <glyph glyph-name="trademark" unicode="&#x2122;" 
 />
    <glyph glyph-name="scaron" unicode="&#x161;" 
 />
    <glyph glyph-name="zcaron" unicode="&#x17e;" 
 />
    <glyph glyph-name="minus" unicode="&#x2212;" horiz-adv-x="263" 
d="M7 254h223v-45h-223v45z" />
  </font>
</defs>
</svg>
